<svg width="16" height="12" viewBox="0 0 16 12" fill="none" xmlns="http://www.w3.org/2000/svg">
<path d="M14.752 0.943998C14.128 0.319998 13.12 0.319998 12.496 0.943998L5.776 7.664L3.536 5.424C2.912 4.8 1.904 4.8 1.28 5.424C0.976 5.728 0.816 6.128 0.816 6.56C0.816 6.992 0.976 7.392 1.28 7.696L4.656 11.072C4.96 11.392 5.376 11.536 5.792 11.536C6.208 11.536 6.608 11.376 6.928 11.072L14.784 3.216C15.376 2.576 15.376 1.568 14.752 0.943998ZM14.288 2.752L6.432 10.608C6.064 10.976 5.456 10.976 5.072 10.608L1.712 7.232C1.536 7.056 1.424 6.816 1.424 6.56C1.424 6.304 1.52 6.064 1.712 5.888C1.888 5.712 2.128 5.6 2.384 5.6C2.64 5.6 2.88 5.696 3.056 5.888L5.52 8.352L5.552 8.384C5.68 8.48 5.856 8.48 5.984 8.352L6 8.336L12.944 1.392C13.312 1.024 13.92 1.024 14.304 1.392C14.672 1.776 14.672 2.384 14.288 2.752Z" fill="#80569C"/>
</svg>
