<svg width="16" height="16" viewBox="0 0 16 16" fill="none" xmlns="http://www.w3.org/2000/svg">
<path d="M0.500425 5.91668L1.39355 13.2251C1.41862 13.4383 1.52117 13.6348 1.6817 13.7773C1.84222 13.9198 2.04953 13.9983 2.26417 13.9979H13.7329C13.9476 13.9983 14.1549 13.9198 14.3154 13.7773C14.4759 13.6348 14.5785 13.4383 14.6035 13.2251L15.4954 5.91668C15.5016 5.8641 15.4966 5.81081 15.4807 5.76031C15.4648 5.70981 15.4384 5.66325 15.4032 5.62369C15.368 5.58413 15.3248 5.55248 15.2765 5.5308C15.2282 5.50913 15.1759 5.49792 15.1229 5.49793H0.872925C0.819981 5.49792 0.767637 5.50913 0.719334 5.5308C0.671031 5.55248 0.627866 5.58413 0.592678 5.62369C0.557489 5.66325 0.531076 5.70981 0.515176 5.76031C0.499275 5.81081 0.494248 5.8641 0.500425 5.91668Z" fill="#161616"/>
<path d="M14.4991 3.87296C14.4991 3.64089 14.407 3.41833 14.2429 3.25424C14.0788 3.09014 13.8562 2.99796 13.6241 2.99796H7.65039L6.15039 1.99796H2.37415C2.14208 1.99796 1.91952 2.09014 1.75543 2.25424C1.59133 2.41833 1.49915 2.64089 1.49915 2.87296V4.49796H14.4991V3.87296Z" fill="#161616"/>
</svg>
